<svg xmlns="http://www.w3.org/2000/svg" width="100" height="100" viewBox="0 0 100 100" version="1.1"><path d="M 56.361 31.500 C 51.202 34.592, 50.435 36.467, 52.997 39.724 C 54.099 41.124, 55 43.109, 55 44.135 C 55 46.288, 55.399 46.392, 58.104 44.945 C 62.075 42.819, 68 47.156, 68 52.189 C 68 54.534, 68.422 55, 70.545 55 C 71.945 55, 74.186 56.095, 75.525 57.434 L 77.959 59.868 79.953 57.332 C 91.606 42.518, 72.635 21.745, 56.361 31.500" stroke="none" fill="#4b4b4b" fill-rule="evenodd"/><path d="M 37.678 35.430 C 33.596 37.638, 31.124 40.967, 30.389 45.250 C 29.998 47.523, 29.184 49, 28.323 49 C 19.296 49, 14.730 61.930, 21.400 68.600 L 24.800 72 48.945 72 L 73.091 72 75.545 69.545 C 80.472 64.619, 77.166 55, 70.545 55 C 68.422 55, 68 54.534, 68 52.189 C 68 47.156, 62.075 42.819, 58.104 44.945 C 55.372 46.406, 55 46.291, 55 43.985 C 55 37.584, 43.864 32.084, 37.678 35.430" stroke="none" fill="#f4f4f4" fill-rule="evenodd"/></svg>