<svg xmlns="http://www.w3.org/2000/svg" width="100" height="100" viewBox="0 0 100 100" version="1.1"><path d="M 49.077 31.589 C 45.466 34.627, 45.238 36.043, 48.073 37.814 C 49.213 38.526, 50.960 40.927, 51.955 43.149 C 52.978 45.434, 54.059 46.714, 54.441 46.095 C 56.779 42.312, 65 46.940, 65 52.039 C 65 54.534, 65.395 55, 67.509 55 C 68.943 55, 71.389 56.310, 73.216 58.056 C 78.367 62.979, 85 60.086, 85 52.918 C 85 49.071, 81.589 45, 78.365 45 C 77.614 45, 77 44.100, 77 43 C 77 39.735, 73.258 36.735, 69.815 37.240 C 67.433 37.590, 66.658 37.232, 65.989 35.471 C 63.541 29.033, 54.563 26.972, 49.077 31.589" stroke="none" fill="#4b4b4b" fill-rule="evenodd"/><path d="M 35.030 36.279 C 31.680 37.975, 28 43.664, 28 47.148 C 28 48.717, 27.663 49.947, 27.250 49.882 C 17.965 48.416, 12.425 61.625, 19.400 68.600 C 24.506 73.706, 69.161 73.974, 73.411 68.923 C 78.125 63.321, 74.332 55, 67.066 55 C 65.443 55, 65 54.365, 65 52.039 C 65 46.940, 56.779 42.312, 54.441 46.095 C 54.058 46.716, 53 45.482, 51.999 43.246 C 48.813 36.131, 41.365 33.074, 35.030 36.279" stroke="none" fill="#f4f4f4" fill-rule="evenodd"/></svg>