<svg xmlns="http://www.w3.org/2000/svg" width="100" height="100" viewBox="0 0 100 100" version="1.1"><path d="M 38.378 30.445 C 34.740 32.019, 32 35.528, 32 38.614 C 32 40.113, 31.201 40.984, 29.414 41.432 C 18.364 44.205, 20.457 60, 31.873 60 C 34.643 60, 36.228 59.453, 36.950 58.250 C 37.949 56.583, 38.063 56.583, 39.360 58.250 C 41.905 61.523, 65.225 60.800, 67.927 57.365 C 71.459 52.875, 68.893 46, 63.686 46 C 62.667 46, 62 45.209, 62 44 C 62 40.786, 58.256 37.735, 54.913 38.226 C 52.852 38.529, 51.874 38.177, 51.500 37.001 C 49.867 31.855, 43.023 28.436, 38.378 30.445" stroke="none" fill="#f4f4f4" fill-rule="evenodd"/><path d="M 48.378 27.531 C 45.847 30.062, 45.847 30.062, 48.924 33.566 C 50.616 35.493, 52 37.426, 52 37.862 C 52 38.297, 53.305 38.462, 54.901 38.228 C 58.256 37.735, 62 40.780, 62 44 C 62 45.270, 62.667 46, 63.826 46 C 64.830 46, 66.730 47.149, 68.049 48.552 C 72.009 52.768, 78 50.005, 78 43.964 C 78 41.288, 75.338 38, 73.171 38 C 72.527 38, 72 37.325, 72 36.500 C 72 33.800, 68.060 30.768, 65.413 31.432 C 63.994 31.789, 63 31.600, 63 30.974 C 63 25.608, 52.721 23.188, 48.378 27.531 M 33.425 66.443 C 32.803 68.920, 33.476 71, 34.899 71 C 36.032 71, 38.128 66.016, 37.454 64.925 C 36.354 63.146, 34.033 64.021, 33.425 66.443" stroke="none" fill="#4a4a4a" fill-rule="evenodd"/></svg>