<svg xmlns="http://www.w3.org/2000/svg" width="100" height="100" viewBox="0 0 100 100" version="1.1"><path d="M 54.973 26.646 C 50.399 29.692, 49.858 31.004, 52.037 33.775 C 53.117 35.147, 54 36.806, 54 37.462 C 54 38.221, 55.104 38.492, 57.039 38.208 C 60.625 37.681, 64 40.219, 64 43.442 C 64 44.895, 64.673 45.625, 66.112 45.733 C 67.273 45.821, 68.996 46.592, 69.941 47.446 C 72.290 49.573, 72.721 49.440, 74.474 46.050 C 80.881 33.660, 66.270 19.124, 54.973 26.646" stroke="none" fill="#ec6b4b" fill-rule="evenodd"/><path d="M 39.420 30.145 C 36.891 31.372, 34 36.044, 34 38.904 C 34 40.359, 33.365 41, 31.923 41 C 25.484 41, 21.755 51.278, 26.283 56.543 C 29.157 59.884, 37.561 61.308, 38.589 58.628 C 39.374 56.583, 42 56.484, 42 58.500 C 42 61.144, 65.911 60.644, 69.365 57.927 C 74.165 54.152, 72.039 46.180, 66.112 45.733 C 64.673 45.625, 64 44.895, 64 43.442 C 64 40.219, 60.625 37.681, 57.039 38.208 C 54.865 38.527, 54 38.247, 54 37.227 C 54 32.171, 44.627 27.618, 39.420 30.145" stroke="none" fill="#f4f3f3" fill-rule="evenodd"/></svg>