<svg xmlns="http://www.w3.org/2000/svg" width="100" height="100" viewBox="0 0 100 100" version="1.1"><path d="M 39.420 30.145 C 36.891 31.372, 34 36.044, 34 38.904 C 34 40.359, 33.365 41, 31.923 41 C 25.512 41, 21.753 51.276, 26.252 56.506 C 29.314 60.066, 36.653 61.183, 38.714 58.402 C 40.049 56.601, 40.192 56.593, 41.422 58.250 C 43.521 61.079, 65.683 60.823, 69.365 57.927 C 73.993 54.287, 71.654 46, 66 46 C 64.569 46, 64 45.333, 64 43.655 C 64 40.241, 60.713 37.668, 57.039 38.208 C 54.865 38.527, 54 38.247, 54 37.227 C 54 32.171, 44.627 27.618, 39.420 30.145" stroke="none" fill="#f4f4f4" fill-rule="evenodd"/><path d="M 54.973 26.646 C 50.399 29.692, 49.858 31.004, 52.037 33.775 C 53.117 35.147, 54 36.806, 54 37.462 C 54 38.221, 55.104 38.492, 57.039 38.208 C 60.713 37.668, 64 40.241, 64 43.655 C 64 45.333, 64.569 46, 66 46 C 67.100 46, 68.904 46.904, 70.009 48.009 C 74.601 52.601, 78.264 37.954, 74.102 31.641 C 69.939 25.327, 60.611 22.892, 54.973 26.646" stroke="none" fill="#4a4a4a" fill-rule="evenodd"/></svg>