<svg xmlns="http://www.w3.org/2000/svg" width="100" height="100" viewBox="0 0 100 100" version="1.1"><path d="M 49.077 25.589 C 45.366 28.711, 45.273 29.640, 48.423 32.118 C 49.756 33.167, 51.141 35.366, 51.501 37.006 C 52.057 39.535, 52.437 39.836, 54.012 38.993 C 58.221 36.741, 64 40.479, 64 45.455 C 64 47.452, 64.501 48, 66.326 48 C 67.605 48, 69.708 49.125, 71 50.500 C 75.637 55.435, 83 52.463, 83 45.655 C 83 42.379, 80.572 39, 78.218 39 C 77.600 39, 76.344 37.420, 75.428 35.489 C 73.709 31.867, 70.635 30.339, 66.984 31.294 C 65.543 31.671, 65 31.316, 65 29.995 C 65 27.153, 59.360 23, 55.500 23 C 53.359 23, 51.045 23.932, 49.077 25.589 M 35.497 59.006 C 34.504 61.209, 33.086 63.514, 32.346 64.128 C 30.374 65.764, 30.702 67, 33.107 67 C 34.401 67, 35.015 67.482, 34.698 68.250 C 34.414 68.938, 33.460 71.188, 32.577 73.250 C 30.351 78.454, 31.963 77.934, 37.224 71.750 C 43.502 64.370, 44.672 62, 42.035 62 C 39.458 62, 39.467 60.947, 42.073 57.635 C 44.145 55, 44.145 55, 40.724 55 C 37.700 55, 37.094 55.464, 35.497 59.006" stroke="none" fill="#4a4a4a" fill-rule="evenodd"/><path d="M 32.400 32.400 C 29.353 35.447, 28.430 37.932, 28.925 41.750 C 29.019 42.472, 27.986 43, 26.478 43 C 21.231 43, 17 47.694, 17 53.516 C 17 63.946, 30.842 68.494, 35.212 59.500 C 37.161 55.488, 37.764 55, 40.772 55 C 44.145 55, 44.145 55, 42.073 57.635 C 39.483 60.927, 39.458 62, 41.969 62 C 43.134 62, 43.741 62.510, 43.456 63.250 C 42.475 65.794, 68.350 64.323, 70.802 61.696 C 75.499 56.664, 72.721 48, 66.411 48 C 64.494 48, 64 47.478, 64 45.455 C 64 40.479, 58.221 36.741, 54.012 38.993 C 52.436 39.837, 52.056 39.533, 51.496 36.982 C 49.749 29.026, 38.478 26.322, 32.400 32.400" stroke="none" fill="#f3f2f1" fill-rule="evenodd"/></svg>