<svg xmlns="http://www.w3.org/2000/svg" width="100" height="100" viewBox="0 0 100 100" version="1.1"><path d="" stroke="none" fill="#504c4c" fill-rule="evenodd"/><path d="M 48.667 30.667 C 48.300 31.033, 48 32.228, 48 33.322 C 48 35.225, 47.917 35.235, 46.063 33.557 C 41.674 29.585, 40.652 34.334, 45 38.500 C 48.645 41.992, 49.051 45.290, 45.778 44.820 C 44.156 44.586, 43.134 43.284, 41.996 40 C 40.250 34.963, 37.479 33.826, 37.533 38.169 C 37.561 40.386, 37.275 40.682, 35.849 39.919 C 32.094 37.909, 29.947 41.752, 33.663 43.831 C 35.136 44.656, 35.079 44.840, 33.163 45.448 C 27.646 47.199, 31.424 50.501, 37.173 48.953 C 40.875 47.957, 41.554 48.037, 42.700 49.605 C 44.815 52.496, 42.752 53.509, 37.292 52.260 C 34.675 51.661, 32.188 51.384, 31.766 51.644 C 30.209 52.607, 31.068 55.091, 33.250 55.932 C 35.249 56.703, 35.305 56.879, 33.750 57.507 C 31.868 58.267, 31.300 62, 33.066 62 C 33.652 62, 34.904 61.586, 35.849 61.081 C 37.275 60.318, 37.561 60.614, 37.533 62.831 C 37.480 67.143, 40.246 66.035, 42.103 61 C 43.819 56.347, 46.535 54.625, 47.635 57.492 C 48.043 58.554, 47.161 60.271, 45.132 62.364 C 40.743 66.892, 41.586 71.494, 46.063 67.443 C 47.933 65.751, 48 65.782, 48 68.345 C 48 70.333, 48.502 71, 50 71 C 51.498 71, 52 70.333, 52 68.345 C 52 65.782, 52.067 65.751, 53.937 67.443 C 58.414 71.494, 59.257 66.892, 54.868 62.364 C 52.839 60.271, 51.957 58.554, 52.365 57.492 C 53.485 54.571, 56.387 56.349, 58.106 61.009 C 60.001 66.145, 63 67.705, 63 63.554 C 63 61.320, 63.330 61.045, 65.391 61.562 C 68.736 62.402, 69.868 60.121, 67.184 57.948 C 65.050 56.220, 65.050 56.220, 67.112 55.681 C 70.565 54.778, 69.095 51.409, 65.464 51.904 C 58.822 52.810, 57.500 52.577, 57.500 50.500 C 57.500 48.329, 59.613 48.072, 65.750 49.496 C 69.586 50.386, 70.725 46.682, 66.980 45.494 C 64.998 44.865, 65.003 44.818, 67.230 42.997 C 70.178 40.588, 68.256 37.735, 65.038 39.744 C 63.347 40.800, 63.091 40.624, 62.813 38.219 C 62.311 33.856, 59.768 34.958, 58.124 40.250 C 57.059 43.680, 56.133 45, 54.793 45 C 51.507 45, 51.542 42.068, 54.868 38.636 C 59.257 34.108, 58.414 29.506, 53.937 33.557 C 52.067 35.249, 52 35.218, 52 32.655 C 52 30.157, 50.231 29.102, 48.667 30.667" stroke="none" fill="#4c4c4c" fill-rule="evenodd"/></svg>