<svg xmlns="http://www.w3.org/2000/svg" width="100" height="100" viewBox="0 0 100 100" version="1.1"><path d="" stroke="none" fill="#504c4c" fill-rule="evenodd"/><path d="M 38.250 35.250 C 38.541 36.124, 41.322 36.500, 47.500 36.500 C 53.678 36.500, 56.459 36.124, 56.750 35.250 C 57.064 34.307, 54.789 34, 47.500 34 C 40.211 34, 37.936 34.307, 38.250 35.250 M 26 41.476 C 26 42.782, 28.444 43, 43.083 43 C 56.305 43, 60.073 42.717, 59.751 41.750 C 59.070 39.702, 26 39.433, 26 41.476 M 37.446 47.087 C 35.911 49.570, 39.390 50.035, 57.560 49.773 C 74.652 49.526, 76.507 49.331, 76.810 47.750 C 77.216 45.640, 38.741 44.992, 37.446 47.087 M 23.190 53.750 C 23.708 56.437, 62.292 56.437, 62.810 53.750 C 63.122 52.130, 61.649 52, 43 52 C 24.351 52, 22.878 52.130, 23.190 53.750 M 31.446 59.087 C 29.911 61.570, 33.390 62.035, 51.560 61.773 C 68.652 61.526, 70.507 61.331, 70.810 59.750 C 71.216 57.640, 32.741 56.992, 31.446 59.087 M 37.667 64.667 C 35.776 66.558, 38.114 67, 50 67 C 60.889 67, 63 66.756, 63 65.500 C 63 63.928, 39.189 63.145, 37.667 64.667" stroke="none" fill="#4c4c4c" fill-rule="evenodd"/></svg>